# xmcd CD database file
#
# Track frame offsets:
#	180
#	30556
#	52147
#	75980
#	104236
#	127640
#	165793
#	189936
#	215039
#	246159
#	268901
#	300162
#
# Disc length: 4307 seconds
#
# Revision: 0
# Processed by: cddbd v1.5.1PL0 Copyright (c) Steve Scherf et al.
# Submitted via: CDex 1.51
#
DISCID=9610d10c
DTITLE=Various Artist - Heartbeats
DYEAR=2005
DGENRE=Mix
TTITLE0=Peter Kraus - Rock´n Roll Party
TTITLE1=Fancy - Flames of Love
TTITLE2=Steve Allen - Letter from my Heart
TTITLE3=Ivan - Fotonovia (Remix 89)
TTITLE4=Peter Kent - It´s a real good Feeling
TTITLE5=Anglia - Remix
TTITLE6=Soulsisters - The Way to your Heart 
TTITLE7=Nick Kamen - I Promised myself
TTITLE8=Diana Ross - Cain Reaction
TTITLE9=Tina Charles - Dance little Lady 
TTITLE10=Boris Gardiner - This old House 
TTITLE11=Nick Straker Band - A walk in the Park
EXTD=YEAR: 2005
EXTT0=
EXTT1=
EXTT2=
EXTT3=
EXTT4=
EXTT5=
EXTT6=
EXTT7=
EXTT8=
EXTT9=
EXTT10=
EXTT11=
PLAYORDER=
